<svg 
 xmlns="http://www.w3.org/2000/svg"
 xmlns:xlink="http://www.w3.org/1999/xlink"
 width="20px" height="37px">
<defs>
<linearGradient id="PSgrad_0" x1="0%" x2="76.604%" y1="64.279%" y2="0%">
  <stop offset="0%" stop-color="rgb(189,184,82)" stop-opacity="1" />
  <stop offset="100%" stop-color="rgb(24,68,103)" stop-opacity="1" />
</linearGradient>

</defs>
<path fill-rule="evenodd"  fill="rgb(237, 86, 31)"
 d="M19.946,12.690 C19.850,12.473 19.642,12.333 19.413,12.333 L12.443,12.333 L19.322,0.947 C19.437,0.757 19.444,0.516 19.341,0.319 C19.237,0.122 19.039,-0.000 18.825,-0.000 L9.414,-0.000 C9.191,-0.000 8.987,0.132 8.887,0.341 L0.064,18.841 C-0.028,19.032 -0.018,19.258 0.089,19.440 C0.197,19.622 0.386,19.733 0.590,19.733 L6.639,19.733 L0.048,36.144 C-0.065,36.425 0.035,36.750 0.283,36.909 C0.378,36.970 0.484,37.000 0.589,37.000 C0.758,37.000 0.925,36.924 1.040,36.781 L19.863,13.348 C20.011,13.164 20.043,12.907 19.946,12.690 Z"/>
<path fill="url(#PSgrad_0)"
 d="M19.946,12.690 C19.850,12.473 19.642,12.333 19.413,12.333 L12.443,12.333 L19.322,0.947 C19.437,0.757 19.444,0.516 19.341,0.319 C19.237,0.122 19.039,-0.000 18.825,-0.000 L9.414,-0.000 C9.191,-0.000 8.987,0.132 8.887,0.341 L0.064,18.841 C-0.028,19.032 -0.018,19.258 0.089,19.440 C0.197,19.622 0.386,19.733 0.590,19.733 L6.639,19.733 L0.048,36.144 C-0.065,36.425 0.035,36.750 0.283,36.909 C0.378,36.970 0.484,37.000 0.589,37.000 C0.758,37.000 0.925,36.924 1.040,36.781 L19.863,13.348 C20.011,13.164 20.043,12.907 19.946,12.690 Z"/>
</svg>